<?xml version="1.0" standalone="no"?>
<!DOCTYPE svg PUBLIC "-//W3C//DTD SVG 20010904//EN"
 "http://www.w3.org/TR/2001/REC-SVG-20010904/DTD/svg10.dtd">
<svg version="1.0" xmlns="http://www.w3.org/2000/svg"
 width="1024.000000pt" height="1024.000000pt" viewBox="0 0 1024.000000 1024.000000"
 preserveAspectRatio="xMidYMid meet">
<metadata>
Created by potrace 1.14, written by Peter Selinger 2001-2017
</metadata>
<g transform="translate(0.000000,1024.000000) scale(0.100000,-0.100000)"
fill="#000000" stroke="none">
<path d="M6310 10214 c-30 -14 -66 -32 -80 -40 -14 -8 -53 -28 -86 -45 -34
-16 -67 -36 -74 -44 -7 -8 -18 -15 -25 -15 -19 0 -211 -132 -414 -284 -125
-94 -284 -245 -354 -336 -23 -30 -80 -101 -127 -156 -75 -90 -208 -303 -348
-558 -41 -76 -124 -260 -139 -311 -8 -27 -19 -54 -23 -60 -24 -29 -123 -333
-145 -445 -7 -36 -18 -91 -25 -123 -13 -66 -8 -606 7 -699 14 -92 69 -132 140
-103 48 20 66 64 59 144 -4 36 -9 181 -12 321 -5 237 -4 261 15 335 12 43 21
87 21 97 0 30 66 247 100 328 18 41 40 100 50 130 17 50 105 246 133 295 182
320 261 445 339 537 48 57 100 121 116 143 78 108 384 362 622 517 228 148
462 248 579 248 46 0 52 -3 84 -42 61 -76 153 -248 193 -360 15 -40 39 -98 54
-128 15 -30 42 -100 60 -155 18 -55 43 -122 55 -150 24 -51 100 -277 134 -395
11 -36 31 -103 45 -150 15 -47 40 -136 56 -198 17 -63 36 -126 44 -140 7 -15
82 -234 166 -487 84 -253 165 -485 180 -515 16 -30 40 -82 53 -115 58 -141
208 -496 267 -630 94 -214 137 -305 161 -347 16 -27 29 -51 29 -53 0 -10 147
-302 192 -383 59 -102 92 -132 151 -132 29 0 46 7 68 29 45 46 39 74 -44 214
-40 67 -90 160 -112 207 -21 47 -65 135 -96 195 -31 61 -76 155 -99 210 -23
55 -55 127 -70 160 -16 33 -81 186 -144 340 -64 154 -136 321 -160 370 -27 54
-104 270 -191 535 -81 245 -153 460 -162 479 -8 19 -26 75 -39 125 -48 184
-187 629 -226 721 -11 28 -44 115 -73 195 -130 359 -230 561 -348 703 l-40 47
-231 -1 c-223 -1 -233 -1 -286 -25z"/>
<path d="M2625 10067 c-101 -38 -174 -90 -322 -229 -231 -217 -339 -343 -487
-568 -57 -85 -127 -204 -156 -265 -29 -60 -59 -117 -66 -125 -7 -9 -27 -49
-44 -90 -17 -41 -38 -88 -46 -103 -9 -15 -26 -58 -39 -95 -13 -37 -32 -92 -43
-122 -11 -30 -34 -98 -50 -150 -17 -52 -39 -120 -50 -150 -11 -30 -30 -95 -41
-145 -12 -49 -26 -108 -31 -130 -70 -295 -92 -461 -74 -554 15 -76 103 -107
161 -57 26 22 28 31 35 123 8 114 17 175 52 333 52 236 85 364 110 423 14 34
35 96 46 137 25 90 67 200 126 333 24 53 44 100 44 103 0 4 15 32 34 63 18 31
37 66 40 78 19 61 220 381 298 475 155 185 391 416 497 486 47 32 54 34 65 20
11 -14 87 -256 142 -448 14 -47 43 -141 64 -210 22 -69 60 -199 86 -289 25
-90 54 -181 64 -201 10 -20 30 -82 44 -136 14 -54 40 -133 57 -174 31 -76 57
-142 109 -283 28 -74 71 -176 129 -302 15 -33 49 -121 77 -194 59 -163 89
-201 158 -201 34 0 49 6 70 27 24 24 27 34 23 73 -3 37 -44 151 -88 245 -5 11
-20 49 -33 85 -13 36 -45 108 -70 160 -24 52 -58 131 -74 175 -16 44 -53 141
-82 215 -29 74 -67 187 -84 250 -18 63 -40 130 -50 148 -19 36 -96 290 -96
316 0 15 -56 197 -106 341 -13 39 -24 78 -24 87 0 16 -43 156 -97 318 -47 139
-85 196 -146 219 -40 15 -64 13 -132 -12z"/>
<path d="M22 6628 c-21 -11 -23 -17 -20 -92 l3 -80 45 -16 c46 -17 139 -81
285 -199 44 -35 96 -74 115 -86 19 -13 56 -43 82 -68 26 -26 87 -80 135 -121
49 -41 142 -127 208 -190 130 -125 166 -146 216 -126 41 18 59 47 59 99 0 44
-2 47 -128 173 -70 71 -149 145 -177 165 -27 21 -90 75 -140 121 -49 46 -125
109 -169 140 -44 31 -105 77 -136 102 -30 25 -98 77 -150 115 -87 63 -99 69
-150 72 -30 1 -65 -2 -78 -9z"/>
<path d="M2549 6585 c-31 -17 -84 -96 -95 -140 -4 -16 -16 -48 -27 -70 -11
-22 -29 -69 -39 -105 -43 -146 -71 -258 -79 -310 -4 -30 -15 -86 -23 -125 -24
-107 -22 -360 4 -456 11 -41 20 -94 20 -118 0 -35 6 -49 34 -77 40 -40 93 -46
141 -14 87 56 112 80 140 130 17 30 45 71 63 90 30 33 72 122 72 156 0 8 16
62 35 119 49 146 57 203 62 495 4 250 3 256 -19 300 -18 35 -35 51 -74 70 -27
14 -63 35 -78 48 -33 26 -96 29 -137 7z"/>
<path d="M5787 6131 c-43 -16 -90 -39 -104 -52 -90 -84 -237 -343 -273 -481
-11 -43 -20 -104 -20 -136 0 -32 -7 -85 -16 -117 -29 -110 -3 -440 42 -526 8
-16 40 -45 71 -65 45 -29 71 -38 118 -41 89 -8 142 10 195 66 74 75 162 259
195 406 8 39 28 97 44 130 46 98 86 410 72 565 -2 19 0 67 4 106 13 123 -29
165 -170 171 -68 2 -92 -2 -158 -26z"/>
<path d="M7831 4963 c-82 -42 -99 -124 -37 -180 40 -37 73 -42 129 -18 32 13
164 15 977 15 1022 0 982 -2 1008 55 19 41 14 72 -17 107 l-29 33 -999 3
c-935 2 -1000 1 -1032 -15z"/>
<path d="M139 4291 c-57 -57 -28 -149 52 -165 18 -3 69 -6 114 -6 84 0 216
-28 333 -71 29 -10 62 -19 73 -19 11 0 53 -11 92 -24 40 -13 117 -31 172 -40
55 -9 129 -23 165 -31 133 -29 247 -39 280 -25 40 17 60 46 60 90 -1 63 -54
104 -151 115 -53 6 -131 19 -306 51 -49 9 -123 27 -166 40 -43 13 -89 24 -103
24 -14 0 -41 8 -62 19 -20 10 -88 30 -150 45 -91 21 -137 26 -243 26 l-131 0
-29 -29z"/>
<path d="M3872 4003 c-19 -9 -54 -36 -79 -61 -26 -25 -67 -54 -92 -65 -89 -38
-131 -105 -116 -186 9 -47 75 -134 117 -154 47 -22 254 -32 337 -17 90 16 135
42 166 93 32 56 33 122 2 198 -27 67 -109 162 -163 189 -47 24 -126 26 -172 3z"/>
<path d="M6973 3748 c-12 -6 -29 -26 -38 -45 -34 -70 20 -142 122 -163 32 -7
78 -18 102 -26 25 -8 62 -14 83 -14 40 0 109 -9 273 -35 50 -8 137 -22 195
-30 58 -9 132 -23 165 -30 33 -8 85 -17 115 -20 51 -7 151 -29 331 -75 42 -11
93 -20 113 -20 21 0 46 -5 57 -11 23 -12 283 -69 316 -69 12 0 59 -12 105 -26
186 -57 459 -134 516 -145 23 -5 83 -22 133 -39 50 -16 99 -30 110 -30 11 0
54 -16 96 -35 95 -44 149 -47 187 -9 37 38 37 100 -1 136 -36 35 -149 85 -243
109 -41 10 -108 30 -147 44 -40 14 -78 25 -85 25 -17 -1 -260 66 -528 144 -47
14 -143 35 -215 47 -71 12 -150 30 -175 39 -25 10 -71 21 -102 23 -32 3 -72
10 -90 16 -72 22 -426 94 -623 126 -55 9 -145 25 -200 35 -55 10 -136 21 -180
25 -74 5 -159 21 -260 47 -64 16 -108 18 -132 6z"/>
<path d="M1840 2965 c-167 -89 -327 -161 -426 -193 -34 -11 -75 -27 -92 -36
-17 -9 -64 -27 -104 -40 -191 -64 -257 -97 -496 -247 -124 -78 -156 -110 -251
-244 -158 -224 -164 -239 -113 -296 23 -26 36 -32 71 -32 53 0 85 23 127 89
109 169 172 246 243 292 196 126 306 183 439 227 75 26 146 52 157 59 11 8 63
28 115 46 109 37 387 168 473 223 63 41 92 88 81 132 -8 34 -59 75 -93 75 -15
0 -74 -25 -131 -55z"/>
<path d="M7129 2581 c-75 -75 -4 -182 211 -316 25 -16 68 -45 95 -66 67 -49
428 -249 474 -261 20 -6 50 -20 67 -33 17 -13 67 -38 112 -55 45 -17 137 -61
204 -96 68 -36 149 -73 181 -84 32 -11 93 -37 135 -59 43 -21 106 -48 142 -59
36 -11 108 -38 160 -59 52 -22 120 -50 150 -62 30 -13 117 -43 192 -67 76 -25
153 -53 170 -63 18 -10 92 -38 163 -61 72 -24 186 -64 255 -90 69 -27 143 -54
165 -60 22 -7 60 -23 85 -35 25 -13 69 -30 98 -38 l52 -16 0 107 0 107 -53 22
c-28 13 -90 36 -137 52 -47 16 -114 41 -150 56 -36 15 -135 50 -220 78 -85 27
-165 56 -176 64 -12 7 -93 38 -180 68 -174 59 -309 109 -395 148 -31 14 -76
31 -100 37 -24 7 -78 29 -120 50 -42 22 -104 48 -137 59 -33 12 -114 48 -179
82 -65 33 -157 78 -205 99 -48 21 -100 47 -115 58 -16 11 -53 28 -83 38 -30
10 -82 34 -115 53 -33 19 -107 60 -165 91 -118 64 -355 226 -411 282 -70 69
-121 77 -170 29z"/>
<path d="M3295 2380 c-44 -4 -105 -14 -135 -23 -30 -8 -91 -18 -135 -22 -155
-12 -348 -59 -378 -93 -45 -49 -40 -126 9 -158 l24 -16 -23 -32 c-17 -25 -23
-48 -26 -114 -3 -75 0 -91 29 -165 53 -132 106 -231 158 -294 41 -49 67 -68
163 -117 62 -32 152 -70 199 -83 135 -39 329 -91 405 -109 39 -9 109 -27 157
-40 48 -13 96 -24 108 -24 12 0 67 -11 122 -26 96 -24 112 -25 312 -21 116 2
256 9 311 15 120 14 304 55 400 89 39 14 106 38 150 53 90 32 210 95 299 158
33 23 65 42 72 42 13 0 104 101 123 137 14 27 15 214 0 268 -14 52 -55 162
-76 200 -24 45 -101 122 -163 163 -49 32 -138 63 -295 104 -22 5 -62 16 -90
23 -90 25 -149 36 -222 45 -40 5 -88 13 -106 19 -18 6 -77 15 -132 21 -111 11
-1134 11 -1260 0z m1275 -208 c41 -6 91 -15 110 -21 19 -6 50 -11 68 -11 32 0
105 -15 217 -46 28 -7 95 -25 150 -39 193 -51 246 -90 295 -218 42 -108 50
-192 21 -228 -29 -37 -183 -139 -266 -176 -296 -133 -516 -180 -873 -190 -159
-4 -181 -3 -280 21 -59 14 -161 37 -227 52 -66 14 -166 40 -223 57 -94 29
-103 33 -96 52 4 11 8 45 8 75 1 30 4 60 8 66 10 16 136 88 203 117 136 57
445 108 567 92 53 -6 176 -61 229 -102 20 -15 59 -44 85 -63 90 -64 170 -148
182 -188 17 -55 54 -87 103 -87 80 0 120 87 84 183 -21 54 -130 173 -215 233
-30 22 -82 60 -115 85 -33 25 -103 67 -155 92 -90 43 -101 46 -195 50 -125 5
-323 -11 -395 -31 -30 -9 -93 -25 -139 -36 -170 -43 -428 -197 -448 -269 -5
-15 -7 -62 -7 -105 l1 -79 -36 7 c-67 11 -221 92 -262 138 -22 23 -39 46 -39
51 0 5 -23 59 -51 119 -49 105 -51 113 -45 171 5 51 3 66 -14 94 -11 17 -25
32 -32 32 -7 0 -8 3 -2 8 21 19 157 46 284 57 36 3 97 12 135 20 39 8 102 18
140 23 91 12 1128 7 1225 -6z"/>
</g>
</svg>
